Coordinates
version=1
nRows=17
nColumns=24
inDegrees=yes

Units are S.I. units (second, meters, Newtons, ...)
Angles are in degrees.

endheader
time	pelvis_tilt	pelvis_list	pelvis_rotation	pelvis_tx	pelvis_ty	pelvis_tz	hip_flexion_r	hip_adduction_r	hip_rotation_r	knee_angle_r	ankle_angle_r	subtalar_angle_r	mtp_angle_r	hip_flexion_l	hip_adduction_l	hip_rotation_l	knee_angle_l	ankle_angle_l	subtalar_angle_l	mtp_angle_l	lumbar_extension	lumbar_bending	lumbar_rotation
      3.77000000	     -5.81127001	     -6.02888451	      0.86248196	      0.07593509	     -0.01911388	     -0.15936700	     14.70077300	     15.41722057	     11.79984129	    -21.58157343	      0.74349385	     -6.18456065	      9.15804148	     29.72976979	     -7.75217293	     -3.35958120	    -67.19496257	     -6.78854135	      1.88100653	      5.07518006	      6.89009596	      5.42112261	     -1.30549227
      3.77500000	     -5.79037627	     -5.85033190	      0.71149395	      0.08205084	     -0.01851659	     -0.15907453	     13.92441388	     15.30527536	     12.30924159	    -21.22298073	      0.96348486	     -6.37840625	      8.80614906	     30.46117839	     -7.51422365	     -3.49381625	    -66.45843742	     -6.21407741	      1.87303885	      5.35561602	      6.79353628	      5.27643909	     -1.01649604
      3.78000000	     -5.75551743	     -5.70492816	      0.56946914	      0.08812793	     -0.01796741	     -0.15875228	     13.12906224	     15.21705292	     12.80972106	    -20.84582377	      1.20461233	     -6.50792371	      8.39366749	     31.16406083	     -7.31145977	     -3.60398968	    -65.64743726	     -5.68906403	      1.86866553	      5.64490512	      6.67640979	      5.16126538	     -0.71246090
      3.78500000	     -5.82625551	     -5.55699481	      0.49542815	      0.09415127	     -0.01759632	     -0.15854213	     12.48786948	     15.07633070	     13.11308287	    -20.47328860	      1.44467458	     -6.53751586	      8.34730818	     31.98250060	     -7.04680207	     -3.63664449	    -64.76992567	     -5.15139605	      1.86256080	      5.75601244	      6.67547185	      5.02449819	     -0.57478392
      3.79000000	     -5.82372712	     -5.36544462	      0.27644888	      0.10021109	     -0.01718248	     -0.15803502	     11.75844370	     14.93481137	     13.52323090	    -20.12295608	      1.70011893	     -6.59842635	      8.21699812	     32.62138446	     -6.87661346	     -3.88330165	    -63.77306408	     -4.54725978	      2.00477542	      5.89412793	      6.58338716	      4.85119965	     -0.21838023
      3.79500000	     -5.83769039	     -5.21140153	      0.12162641	      0.10623244	     -0.01683143	     -0.15768675	     11.05327216	     14.79643847	     13.87707720	    -19.75555793	      1.91791158	     -6.60620596	      8.12485988	     33.27171070	     -6.68266175	     -4.03083974	    -62.70269672	     -3.98075832	      2.10353871	      5.95089807	      6.50878073	      4.72764673	      0.06333850
      3.80000000	     -5.86857168	     -5.05909128	     -0.02925955	      0.11224806	     -0.01656975	     -0.15730602	     10.37677630	     14.65306495	     14.19125322	    -19.39254141	      2.15263402	     -6.59497764	      8.10036261	     33.91183616	     -6.50128717	     -4.18795168	    -61.56063209	     -3.41696105	      2.24768396	      5.94587397	      6.45367416	      4.59154383	      0.32652094
      3.80500000	     -5.91107655	     -4.91033682	     -0.17605234	      0.11825450	     -0.01637590	     -0.15693414	      9.72363280	     14.50570539	     14.47651078	    -19.03686423	      2.37550313	     -6.57002268	      8.11938031	     34.53047924	     -6.32306804	     -4.34340349	    -60.34101276	     -2.85282926	      2.42274085	      5.88189628	      6.40826646	      4.45303447	      0.57304223
      3.81000000	     -6.00817698	     -4.79758675	     -0.24372669	      0.12421258	     -0.01633012	     -0.15675339	      9.14079888	     14.36929754	     14.70774197	    -18.67334874	      2.59831332	     -6.56076825	      8.16022219	     35.21352664	     -6.10454140	     -4.37451119	    -59.06847642	     -2.36788219	      2.57079855	      5.83100092	      6.41893700	      4.36383520	      0.76355667
      3.81500000	     -5.99020507	     -4.62522746	     -0.47414556	      0.13022062	     -0.01613919	     -0.15631221	      8.44287541	     14.20380503	     15.02393199	    -18.36311605	      2.79216313	     -6.51126244	      8.23421720	     35.64626361	     -5.98270761	     -4.67263433	    -57.67016938	     -1.72934162	      2.89673875	      5.57656280	      6.29746600	      4.21566350	      1.08690204
      3.82000000	     -6.10555871	     -4.51803821	     -0.51193053	      0.13618697	     -0.01622873	     -0.15622669	      7.89399908	     14.06106406	     15.19532403	    -18.00970483	      3.01503753	     -6.54832087	      8.27462289	     36.27730446	     -5.75303963	     -4.68622390	    -56.24971167	     -1.28763837	      3.11155869	      5.42196173	      6.33345837	      4.13361583	      1.24569702
      3.82500000	     -5.96220707	     -4.36665772	     -0.63908791	      0.14226678	     -0.01601284	     -0.15606894	      7.01839545	     13.87918050	     15.51115999	    -17.61102028	      3.10018126	     -6.68266424	      8.34371667	     36.52299183	     -5.56880544	     -4.92695626	    -54.81150721	     -0.37369778	      3.57711164	      3.56759679	      6.09001161	      4.01788406	      1.47527638
      3.83000000	     -6.11432589	     -4.27806605	     -0.79204406	      0.14816856	     -0.01626180	     -0.15586306	      6.56662842	     13.77990366	     15.70931992	    -17.36937693	      3.32211940	     -6.63719565	      8.42052811	     37.09712747	     -5.46113356	     -5.06874837	    -53.27626853	      0.18300442	      4.05213349	      3.26751292	      6.14507929	      3.97634943	      1.76205753
      3.83500000	     -6.13568546	     -4.15262175	     -0.88735518	      0.15418538	     -0.01635919	     -0.15574108	      5.92584588	     13.62545691	     15.91122131	    -17.05161375	      3.50186199	     -6.69667816	      8.41484827	     37.45958944	     -5.29324502	     -5.25024887	    -51.63339189	      0.68710487	      4.46593659	      2.71046057	      6.08214341	      3.87272129	      1.92444757
      3.84000000	     -6.17494062	     -4.07045756	     -0.89298260	      0.16017765	     -0.01657656	     -0.15587066	      5.31373781	     13.49899951	     16.05128381	    -16.73648638	      3.62564425	     -6.85915841	      8.31731127	     37.85332439	     -5.07321096	     -5.30583497	    -50.04889502	      1.45455048	      5.00420767	      0.88437406	      6.03216208	      3.83272119	      2.01866380
      3.84500000	     -6.29407057	     -3.99787831	     -0.98744811	      0.16611512	     -0.01691420	     -0.15584282	      4.82530150	     13.39675707	     16.19667102	    -16.48499161	      3.81870811	     -6.84152473	      8.34964519	     38.26728840	     -4.95966064	     -5.45862280	    -48.29979609	      1.81891260	      5.51977160	      0.67497792	      6.06137210	      3.80763700	      2.20249870
      3.85000000	     -6.29899791	     -3.90410617	     -1.04934678	      0.17206751	     -0.01714687	     -0.15590012	      4.20067071	     13.26391473	     16.35179479	    -16.21818335	      3.97520078	     -6.91020415	      8.28988577	     38.49609263	     -4.79139991	     -5.58994897	    -46.47317395	      2.19870716	      6.02164835	      0.14930689	      5.96282833	      3.75670576	      2.37481311
